<?xml version="1.0" encoding="utf-8"?>
<svg width="256" height="256" xmlns="http://www.w3.org/2000/svg">
  <!--
    θ    , cos(θ) , sin(θ) 
     30° ,  0.866 ,  0.5   
     90° ,  0     ,  1     
    150° , -0.866 ,  0.5   
    210° , -0.866 , -0.5   
    270° ,  0     , -1     
    330° ,  0.866 , -0.5   
  -->
  <g transform="translate(128 128) scale(0.11 0.11)">
    <g stroke="white" stroke-width="150">
      <circle cx="0" cy="0" r="1000" fill="none"/>
      <g>
        <line x1="866" y1="500" x2="-866" y2="500"/>
        <line x1="-866" y1="500" x2="0" y2="-1000"/>
        <line x1="0" y1="-1000" x2="866" y2="500"/>
      </g>
      <g>
        <line x1="0" y1="1000" x2="-866" y2="-500"/>
        <line x1="-866" y1="-500" x2="866" y2="-500"/>
        <line x1="866" y1="-500" x2="0" y2="1000"/>
      </g>
    </g>
    <g stroke="black" stroke-width="100">
      <circle cx="0" cy="0" r="1000" fill="none"/>
      <g>
        <line x1="866" y1="500" x2="-866" y2="500"/>
        <line x1="-866" y1="500" x2="0" y2="-1000"/>
        <line x1="0" y1="-1000" x2="866" y2="500"/>
      </g>
      <g>
        <line x1="0" y1="1000" x2="-866" y2="-500"/>
        <line x1="-866" y1="-500" x2="866" y2="-500"/>
        <line x1="866" y1="-500" x2="0" y2="1000"/>
      </g>
    </g>
  </g>
  <!-- mask
  <rect x="0" y="0" width="100%" height="100%" fill="black"/>
  <g transform="translate(128 128) scale(0.11 0.11)">
    <g stroke="white" stroke-width="100">
      <circle cx="0" cy="0" r="1000" fill="none"/>
      <g>
        <line x1="866" y1="500" x2="-866" y2="500"/>
        <line x1="-866" y1="500" x2="0" y2="-1000"/>
        <line x1="0" y1="-1000" x2="866" y2="500"/>
      </g>
      <g>
        <line x1="0" y1="1000" x2="-866" y2="-500"/>
        <line x1="-866" y1="-500" x2="866" y2="-500"/>
        <line x1="866" y1="-500" x2="0" y2="1000"/>
      </g>
    </g>
  </g> -->
</svg>
