<?xml version="1.0" encoding="UTF-8"?>
<svg width="256" height="256" xmlns="http://www.w3.org/2000/svg">
  <!-- 
    θ    , cos(θ) , sin(θ) 
     54° ,  0.588 ,  0.809 
    126° , -0.588 ,  0.809 
    198° , -0.951 , -0.309 
    270° ,  0     , -1     
    342° ,  0.951 , -0.309 
  -->
  <g transform="translate(128 128) scale(0.11 0.11)">
    <g stroke="white" stroke-width="150">
      <circle cx="0" cy="0" r="1000" fill="none"/>
      <g>
        <line x1="0" y1="-1000" x2="588" y2="809"/>
        <line x1="588" y1="809" x2="-951" y2="-309"/>
        <line x1="-951" y1="-309" x2="951" y2="-309"/>
        <line x1="951" y1="-309" x2="-588" y2="809"/>
        <line x1="-588" y1="809" x2="0" y2="-1000"/>
      </g>
    </g>
    <g stroke="black" stroke-width="100">
      <circle cx="0" cy="0" r="1000" fill="none"/>
      <g>
        <line x1="0" y1="-1000" x2="588" y2="809"/>
        <line x1="588" y1="809" x2="-951" y2="-309"/>
        <line x1="-951" y1="-309" x2="951" y2="-309"/>
        <line x1="951" y1="-309" x2="-588" y2="809"/>
        <line x1="-588" y1="809" x2="0" y2="-1000"/>
      </g>
    </g>
  </g>
  <!-- mask
  <rect x="0" y="0" width="100%" height="100%" fill="black"/>
  <g transform="translate(128 128) scale(0.11 0.11)">
    <g stroke="white" stroke-width="100">
      <circle cx="0" cy="0" r="1000" fill="none"/>
      <g>
        <line x1="0" y1="-1000" x2="588" y2="809"/>
        <line x1="588" y1="809" x2="-951" y2="-309"/>
        <line x1="-951" y1="-309" x2="951" y2="-309"/>
        <line x1="951" y1="-309" x2="-588" y2="809"/>
        <line x1="-588" y1="809" x2="0" y2="-1000"/>
      </g>
    </g>
  </g> -->
</svg>
