<?xml version="1.0" encoding="UTF-8"?>
<svg width="256" height="256" xmlns="http://www.w3.org/2000/svg">
  <!-- 
    θ    , cos(θ) , sin(θ) 
      0° ,  1     ,  0     
     90° ,  0     ,  1     
    180° , -1     ,  0     
    270° ,  0     , -1     
  -->
  <g transform="translate(128 128) scale(0.11 0.11)">
    <g stroke="white" stroke-width="150">
      <circle cx="0" cy="0" r="1000" fill="none"/>
      <g>
        <line x1="1000" y1="0" x2="0" y2="1000"/>
        <line x1="0" y1="1000" x2="-1000" y2="0"/>
        <line x1="-1000" y1="0" x2="0" y2="-1000"/>
        <line x1="0" y1="-1000" x2="1000" y2="0"/>
      </g>
    </g>
    <g stroke="black" stroke-width="100">
      <circle cx="0" cy="0" r="1000" fill="none"/>
      <g>
        <line x1="1000" y1="0" x2="0" y2="1000"/>
        <line x1="0" y1="1000" x2="-1000" y2="0"/>
        <line x1="-1000" y1="0" x2="0" y2="-1000"/>
        <line x1="0" y1="-1000" x2="1000" y2="0"/>
      </g>
    </g>
  </g>
  <!-- mask
  <rect x="0" y="0" width="100%" height="100%" fill="black"/>
  <g transform="translate(128 128) scale(0.11 0.11)">
    <g stroke="white" stroke-width="100">
      <circle cx="0" cy="0" r="1000" fill="none"/>
      <g>
        <line x1="1000" y1="0" x2="0" y2="1000"/>
        <line x1="0" y1="1000" x2="-1000" y2="0"/>
        <line x1="-1000" y1="0" x2="0" y2="-1000"/>
        <line x1="0" y1="-1000" x2="1000" y2="0"/>
      </g>
    </g>
  </g> -->
</svg>
