<?xml version="1.0" standalone="no"?>
<svg width="256" height="256" version="1.1" xmlns="http://www.w3.org/2000/svg">
<!-- {12} regular dodecagon
  c = 128, r = 108, θ = {90°, 120°, 150°, 180°, 210°, 240°, 270°, 300°, 330°, 0°, 30°, 60°}
  x = c + r * cos(θ), y = c - r * sin(θ)
-->
  <polygon points="128.000,20.0000 74.0000,34.4693 34.4693,74.0000 20.0000,128.000 34.4693,182.000 74.0000,221.531 128.000,236.000 182.000,221.531 221.531,182.000 236.000,128.000 221.531,74.0000 182.000,34.4693" stroke="white" stroke-width="16" fill="none"/>
  <polygon points="128.000,20.0000 74.0000,34.4693 34.4693,74.0000 20.0000,128.000 34.4693,182.000 74.0000,221.531 128.000,236.000 182.000,221.531 221.531,182.000 236.000,128.000 221.531,74.0000 182.000,34.4693" stroke="black" stroke-width="10" fill="none"/>
<!-- mask
  <rect x="0" y="0" width="256" height="256" fill="black"/>
  <polygon points="128.000,20.0000 74.0000,34.4693 34.4693,74.0000 20.0000,128.000 34.4693,182.000 74.0000,221.531 128.000,236.000 182.000,221.531 221.531,182.000 236.000,128.000 221.531,74.0000 182.000,34.4693" stroke="white" stroke-width="10" fill="none"/>
-->
</svg>
