<?xml version="1.0" encoding="UTF-8"?>
<svg width="256" height="256" xmlns="http://www.w3.org/2000/svg">
  <!-- hash -->
  <g transform="translate(128 128) scale(0.1 0.1)">
    <polygon fill="none" stroke="white" stroke-width="150" points="600,200 1000,200 1000,600 600,600 600,1000 200,1000 200,600 -200,600 -200,1000 -600,1000 -600,600 -1000,600 -1000,200 -600,200 -600,-200 -1000,-200 -1000,-600 -600,-600 -600,-1000 -200,-1000 -200,-600 200,-600 200,-1000 600,-1000 600,-600 1000,-600 1000,-200 600,-200"/>
    <polygon fill="none" stroke="black" stroke-width="100" points="600,200 1000,200 1000,600 600,600 600,1000 200,1000 200,600 -200,600 -200,1000 -600,1000 -600,600 -1000,600 -1000,200 -600,200 -600,-200 -1000,-200 -1000,-600 -600,-600 -600,-1000 -200,-1000 -200,-600 200,-600 200,-1000 600,-1000 600,-600 1000,-600 1000,-200 600,-200"/>
  </g>
  <!-- mask
  <rect x="0" y="0" width="100%" height="100%" fill="black"/>
  <g transform="translate(128 128) scale(0.1 0.1)">
    <polygon fill="none" stroke="white" stroke-width="100" points="600,200 1000,200 1000,600 600,600 600,1000 200,1000 200,600 -200,600 -200,1000 -600,1000 -600,600 -1000,600 -1000,200 -600,200 -600,-200 -1000,-200 -1000,-600 -600,-600 -600,-1000 -200,-1000 -200,-600 200,-600 200,-1000 600,-1000 600,-600 1000,-600 1000,-200 600,-200"/>
  </g> -->
</svg>
