<?xml version="1.0" encoding="utf-8"?>
<svg width="1024" height="1024" xmlns="http://www.w3.org/2000/svg">
  <!-- K12 = {12} + {12|2} + {12|3} + {12|4} + {12|5} + {12|6} -->
  <!-- 
    θ    , cos(θ) , sin(θ) 
      0° ,  1     ,  0     
     30° ,  0.866 ,  0.5   
     60° ,  0.5   ,  0.866 
     90° ,  0     ,  1     
    120° , -0.5   ,  0.866 
    150° , -0.866 ,  0.5   
    180° , -1     ,  0     
    210° , -0.866 , -0.5   
    240° , -0.5   , -0.866 
    270° ,  0     , -1     
    300° ,  0.5   , -0.866 
    330° ,  0.866 , -0.5   
  -->
  <!-- <polygon fill="none" points="
1000 0
866 500
500 866
0 1000
-500 866
-866 500
-1000 0
-866 -500
-500 -866
0 -1000
500 -866
866 -500
"/> -->
  <!-- mask
  <rect x="0" y="0" width="100%" height="100%" fill="black"/> -->
  <!-- background -->
  <g stroke="white" stroke-width="32" transform="translate(512 512) scale(0.5 0.5)">
    <circle cx="0" cy="0" r="1000" fill="none"/>
    <!-- {12} -->
    <g>
      <line x1="1000" y1="0" x2="866" y2="500"/>
      <line x1="866" y1="500" x2="500" y2="866"/>
      <line x1="500" y1="866" x2="0" y2="1000"/>
      <line x1="0" y1="1000" x2="-500" y2="866"/>
      <line x1="-500" y1="866" x2="-866" y2="500"/>
      <line x1="-866" y1="500" x2="-1000" y2="0"/>
      <line x1="-1000" y1="0" x2="-866" y2="-500"/>
      <line x1="-866" y1="-500" x2="-500" y2="-866"/>
      <line x1="-500" y1="-866" x2="0" y2="-1000"/>
      <line x1="0" y1="-1000" x2="500" y2="-866"/>
      <line x1="500" y1="-866" x2="866" y2="-500"/>
      <line x1="866" y1="-500" x2="1000" y2="0"/>
    </g>
    <!-- {12|2} -->
    <g>
      <line x1="1000" y1="0" x2="500" y2="866"/>
      <line x1="500" y1="866" x2="-500" y2="866"/>
      <line x1="-500" y1="866" x2="-1000" y2="0"/>
      <line x1="-1000" y1="0" x2="-500" y2="-866"/>
      <line x1="-500" y1="-866" x2="500" y2="-866"/>
      <line x1="500" y1="-866" x2="1000" y2="0"/>

      <line x1="866" y1="500" x2="0" y2="1000"/>
      <line x1="0" y1="1000" x2="-866" y2="500"/>
      <line x1="-866" y1="500" x2="-866" y2="-500"/>
      <line x1="-866" y1="-500" x2="0" y2="-1000"/>
      <line x1="0" y1="-1000" x2="866" y2="-500"/>
      <line x1="866" y1="-500" x2="866" y2="500"/>
    </g>
    <!-- {12|3} -->
    <g>
      <line x1="1000" y1="0" x2="0" y2="1000"/>
      <line x1="0" y1="1000" x2="-1000" y2="0"/>
      <line x1="-1000" y1="0" x2="0" y2="-1000"/>
      <line x1="0" y1="-1000" x2="1000" y2="0"/>

      <line x1="866" y1="500" x2="-500" y2="866"/>
      <line x1="-500" y1="866" x2="-866" y2="-500"/>
      <line x1="-866" y1="-500" x2="500" y2="-866"/>
      <line x1="500" y1="-866" x2="866" y2="500"/>

      <line x1="500" y1="866" x2="-866" y2="500"/>
      <line x1="-866" y1="500" x2="-500" y2="-866"/>
      <line x1="-500" y1="-866" x2="866" y2="-500"/>
      <line x1="866" y1="-500" x2="500" y2="866"/>
    </g>
    <!-- {12|4} -->
    <g>
      <line x1="1000" y1="0" x2="-500" y2="866"/>
      <line x1="-500" y1="866" x2="-500" y2="-866"/>
      <line x1="-500" y1="-866" x2="1000" y2="0"/>

      <line x1="866" y1="500" x2="-866" y2="500"/>
      <line x1="-866" y1="500" x2="0" y2="-1000"/>
      <line x1="0" y1="-1000" x2="866" y2="500"/>

      <line x1="500" y1="866" x2="-1000" y2="0"/>
      <line x1="-1000" y1="0" x2="500" y2="-866"/>
      <line x1="500" y1="-866" x2="500" y2="866"/>

      <line x1="0" y1="1000" x2="-866" y2="-500"/>
      <line x1="-866" y1="-500" x2="866" y2="-500"/>
      <line x1="866" y1="-500" x2="0" y2="1000"/>
    </g>
    <!-- {12|5} -->
    <g>
      <line x1="1000" y1="0" x2="-866" y2="500"/>
      <line x1="-866" y1="500" x2="500" y2="-866"/>
      <line x1="500" y1="-866" x2="0" y2="1000"/>
      <line x1="0" y1="1000" x2="-500" y2="-866"/>
      <line x1="-500" y1="-866" x2="866" y2="500"/>
      <line x1="866" y1="500" x2="-1000" y2="0"/>
      <line x1="-1000" y1="0" x2="866" y2="-500"/>
      <line x1="866" y1="-500" x2="-500" y2="866"/>
      <line x1="-500" y1="866" x2="0" y2="-1000"/>
      <line x1="0" y1="-1000" x2="500" y2="866"/>
      <line x1="500" y1="866" x2="-866" y2="-500"/>
      <line x1="-866" y1="-500" x2="1000" y2="0"/>
    </g>
    <!-- {12|6} -->
    <g>
      <line x1="1000" y1="0" x2="-1000" y2="0"/>
      <line x1="866" y1="500" x2="-866" y2="-500"/>
      <line x1="500" y1="866" x2="-500" y2="-866"/>
      <line x1="0" y1="1000" x2="0" y2="-1000"/>
      <line x1="-500" y1="866" x2="500" y2="-866"/>
      <line x1="-866" y1="500" x2="866" y2="-500"/>
    </g>
    <!-- corners    
    <g fill="white">
      <circle cx="1000" cy="0" r="20"/>
      <circle cx="866" cy="500" r="20"/>
      <circle cx="500" cy="866" r="20"/>
      <circle cx="0" cy="1000" r="20"/>
      <circle cx="-500" cy="866" r="20"/>
      <circle cx="-866" cy="500" r="20"/>
      <circle cx="-1000" cy="0" r="20"/>
      <circle cx="-866" cy="-500" r="20"/>
      <circle cx="-500" cy="-866" r="20"/>
      <circle cx="0" cy="-1000" r="20"/>
      <circle cx="500" cy="-866" r="20"/>
      <circle cx="866" cy="-500" r="20"/>
    </g> -->
  </g>
  <!-- foreground -->
  <g stroke="black" stroke-width="20" transform="translate(512 512) scale(0.5 0.5)">
    <circle cx="0" cy="0" r="1000" fill="none"/>
    <!-- {12} -->
    <g>
      <line x1="1000" y1="0" x2="866" y2="500"/>
      <line x1="866" y1="500" x2="500" y2="866"/>
      <line x1="500" y1="866" x2="0" y2="1000"/>
      <line x1="0" y1="1000" x2="-500" y2="866"/>
      <line x1="-500" y1="866" x2="-866" y2="500"/>
      <line x1="-866" y1="500" x2="-1000" y2="0"/>
      <line x1="-1000" y1="0" x2="-866" y2="-500"/>
      <line x1="-866" y1="-500" x2="-500" y2="-866"/>
      <line x1="-500" y1="-866" x2="0" y2="-1000"/>
      <line x1="0" y1="-1000" x2="500" y2="-866"/>
      <line x1="500" y1="-866" x2="866" y2="-500"/>
      <line x1="866" y1="-500" x2="1000" y2="0"/>
    </g>
    <!-- {12|2} -->
    <g>
      <line x1="1000" y1="0" x2="500" y2="866"/>
      <line x1="500" y1="866" x2="-500" y2="866"/>
      <line x1="-500" y1="866" x2="-1000" y2="0"/>
      <line x1="-1000" y1="0" x2="-500" y2="-866"/>
      <line x1="-500" y1="-866" x2="500" y2="-866"/>
      <line x1="500" y1="-866" x2="1000" y2="0"/>

      <line x1="866" y1="500" x2="0" y2="1000"/>
      <line x1="0" y1="1000" x2="-866" y2="500"/>
      <line x1="-866" y1="500" x2="-866" y2="-500"/>
      <line x1="-866" y1="-500" x2="0" y2="-1000"/>
      <line x1="0" y1="-1000" x2="866" y2="-500"/>
      <line x1="866" y1="-500" x2="866" y2="500"/>
    </g>
    <!-- {12|3} -->
    <g>
      <line x1="1000" y1="0" x2="0" y2="1000"/>
      <line x1="0" y1="1000" x2="-1000" y2="0"/>
      <line x1="-1000" y1="0" x2="0" y2="-1000"/>
      <line x1="0" y1="-1000" x2="1000" y2="0"/>

      <line x1="866" y1="500" x2="-500" y2="866"/>
      <line x1="-500" y1="866" x2="-866" y2="-500"/>
      <line x1="-866" y1="-500" x2="500" y2="-866"/>
      <line x1="500" y1="-866" x2="866" y2="500"/>

      <line x1="500" y1="866" x2="-866" y2="500"/>
      <line x1="-866" y1="500" x2="-500" y2="-866"/>
      <line x1="-500" y1="-866" x2="866" y2="-500"/>
      <line x1="866" y1="-500" x2="500" y2="866"/>
    </g>
    <!-- {12|4} -->
    <g>
      <line x1="1000" y1="0" x2="-500" y2="866"/>
      <line x1="-500" y1="866" x2="-500" y2="-866"/>
      <line x1="-500" y1="-866" x2="1000" y2="0"/>

      <line x1="866" y1="500" x2="-866" y2="500"/>
      <line x1="-866" y1="500" x2="0" y2="-1000"/>
      <line x1="0" y1="-1000" x2="866" y2="500"/>

      <line x1="500" y1="866" x2="-1000" y2="0"/>
      <line x1="-1000" y1="0" x2="500" y2="-866"/>
      <line x1="500" y1="-866" x2="500" y2="866"/>

      <line x1="0" y1="1000" x2="-866" y2="-500"/>
      <line x1="-866" y1="-500" x2="866" y2="-500"/>
      <line x1="866" y1="-500" x2="0" y2="1000"/>
    </g>
    <!-- {12|5} -->
    <g>
      <line x1="1000" y1="0" x2="-866" y2="500"/>
      <line x1="-866" y1="500" x2="500" y2="-866"/>
      <line x1="500" y1="-866" x2="0" y2="1000"/>
      <line x1="0" y1="1000" x2="-500" y2="-866"/>
      <line x1="-500" y1="-866" x2="866" y2="500"/>
      <line x1="866" y1="500" x2="-1000" y2="0"/>
      <line x1="-1000" y1="0" x2="866" y2="-500"/>
      <line x1="866" y1="-500" x2="-500" y2="866"/>
      <line x1="-500" y1="866" x2="0" y2="-1000"/>
      <line x1="0" y1="-1000" x2="500" y2="866"/>
      <line x1="500" y1="866" x2="-866" y2="-500"/>
      <line x1="-866" y1="-500" x2="1000" y2="0"/>
    </g>
    <!-- {12|6} -->
    <g>
      <line x1="1000" y1="0" x2="-1000" y2="0"/>
      <line x1="866" y1="500" x2="-866" y2="-500"/>
      <line x1="500" y1="866" x2="-500" y2="-866"/>
      <line x1="0" y1="1000" x2="0" y2="-1000"/>
      <line x1="-500" y1="866" x2="500" y2="-866"/>
      <line x1="-866" y1="500" x2="866" y2="-500"/>
    </g>
    <!-- corners    
    <g fill="white">
      <circle cx="1000" cy="0" r="20"/>
      <circle cx="866" cy="500" r="20"/>
      <circle cx="500" cy="866" r="20"/>
      <circle cx="0" cy="1000" r="20"/>
      <circle cx="-500" cy="866" r="20"/>
      <circle cx="-866" cy="500" r="20"/>
      <circle cx="-1000" cy="0" r="20"/>
      <circle cx="-866" cy="-500" r="20"/>
      <circle cx="-500" cy="-866" r="20"/>
      <circle cx="0" cy="-1000" r="20"/>
      <circle cx="500" cy="-866" r="20"/>
      <circle cx="866" cy="-500" r="20"/>
    </g> -->
  </g>
</svg>
