<?xml version="1.0" encoding="UTF-8"?>
<svg width="256" height="256" xmlns="http://www.w3.org/2000/svg">
  <!-- {8/2} regular octagon (rhombus + square)
    θ    , cos(θ) , sin(θ) 
      0° ,  1     ,  0     
     90° ,  0     ,  1     
     45° ,  0.707 ,  0.707 
    135° , -0.707 ,  0.707 
    225° , -0.707 , -0.707 
    315° ,  0.707 , -0.707 
    180° , -1     ,  0     
    270° ,  0     , -1     
  -->
  <g transform="translate(128 128) scale(0.1 0.1)">
    <polygon fill="none" stroke="white" stroke-width="150" points="1000,0 0,1000 -1000,0 0,-1000"/>
    <polygon fill="none" stroke="white" stroke-width="150" points="707,707 -707,707 -707,-707 707,-707"/>
    <polygon fill="none" stroke="black" stroke-width="100" points="1000,0 0,1000 -1000,0 0,-1000"/>
    <polygon fill="none" stroke="black" stroke-width="100" points="707,707 -707,707 -707,-707 707,-707"/>
  </g>
  <!-- mask
  <rect x="0" y="0" width="100%" height="100%" fill="black"/>
  <g transform="translate(128 128) scale(0.1 0.1)">
    <polygon fill="none" stroke="white" stroke-width="100" points="1000,0 0,1000 -1000,0 0,-1000"/>
    <polygon fill="none" stroke="white" stroke-width="100" points="707,707 -707,707 -707,-707 707,-707"/>
  </g> -->
</svg>
