<?xml version="1.0" encoding="utf-8"?>
<svg width="256" height="256" xmlns="http://www.w3.org/2000/svg">
  <!-- {8} regular octagon
    θ    , cos(θ) , sin(θ) 
      0° ,  1     ,  0     
     45° ,  0.707 ,  0.707 
     90° ,  0     ,  1     
    135° , -0.707 ,  0.707 
    180° , -1     ,  0     
    225° , -0.707 , -0.707 
    270° ,  0     , -1     
    315° ,  0.707 , -0.707 
  -->
  <g transform="translate(128 128) scale(0.1 0.1)">
    <polygon fill="none" stroke="white" stroke-width="150" points="1000,0 707,707 0,1000 -707,707 -1000,0 -707,-707 0,-1000 707,-707"/>
    <polygon fill="none" stroke="black" stroke-width="100" points="1000,0 707,707 0,1000 -707,707 -1000,0 -707,-707 0,-1000 707,-707"/>
  </g>
  <!-- mask
  <rect x="0" y="0" width="100%" height="100%" fill="black"/>
  <g transform="translate(128 128) scale(0.1 0.1)">
    <polygon fill="none" stroke="white" stroke-width="100" points="1000,0 707,707 0,1000 -707,707 -1000,0 -707,-707 0,-1000 707,-707"/>
  </g> -->
</svg>
