<?xml version="1.0" encoding="UTF-8"?>
<svg width="256" height="256" xmlns="http://www.w3.org/2000/svg">
  <!-- plus -->
  <g transform="translate(128 128) scale(0.1 0.1)">
    <polygon fill="none" stroke="white" stroke-width="150" points="1000,333 333,333 333,1000 -333,1000 -333,333 -1000,333 -1000,-333 -333,-333 -333,-1000 333,-1000 333,-333 1000,-333"/>
    <polygon fill="none" stroke="black" stroke-width="100" points="1000,333 333,333 333,1000 -333,1000 -333,333 -1000,333 -1000,-333 -333,-333 -333,-1000 333,-1000 333,-333 1000,-333"/>
  </g>
  <!-- mask
  <rect x="0" y="0" width="100%" height="100%" fill="black"/>
  <g transform="translate(128 128) scale(0.1 0.1)">
    <polygon fill="none" stroke="white" stroke-width="100" points="1000,333 333,333 333,1000 -333,1000 -333,333 -1000,333 -1000,-333 -333,-333 -333,-1000 333,-1000 333,-333 1000,-333"/>
  </g> -->
</svg>
