<?xml version="1.0" encoding="utf-8"?>
<svg width="256" height="256" xmlns="http://www.w3.org/2000/svg">
  <!-- {10} regular decagon
    θ    , cos(θ) , sin(θ) 
     18° ,  0.951 ,  0.309
     54° ,  0.588 ,  0.809
     90° ,  0     ,  1
    126° , -0.588 ,  0.809
    162° , -0.951 ,  0.309
    198° , -0.951 , -0.309
    234° , -0.588 , -0.809
    270° ,  0     , -1
    306° ,  0.588 , -0.809
    342° ,  0.951 , -0.309
  -->
  <g transform="translate(128 128) scale(0.1 0.1)">
    <polygon fill="none" stroke="white" stroke-width="150" points="475,155 588,809 0,500 -588,809 -475,155 -951,-309 -294,-405 0,-1000 294,-405 951,-309"/>
    <polygon fill="none" stroke="black" stroke-width="100" points="475,155 588,809 0,500 -588,809 -475,155 -951,-309 -294,-405 0,-1000 294,-405 951,-309"/>
  </g>
  <!-- mask
  <rect x="0" y="0" width="100%" height="100%" fill="black"/>
  <g transform="translate(128 128) scale(0.1 0.1)">
    <polygon fill="none" stroke="white" stroke-width="100" points="475,155 588,809 0,500 -588,809 -475,155 -951,-309 -294,-405 0,-1000 294,-405 951,-309"/>
  </g> -->
</svg>
